PathFileType	4	(X/Y/Z)	/Users/mathieubourgeois/Desktop/Analyse/Traitement/Sujet_01/Data/Transformed_Sujet_01_velo_100.trc
DataRate	CameraRate	NumFrames	NumMarkers	Units	OrigDataRate	OrigDataStartFrame	OrigNumFrames
120.000000	120.000000	5	35	mm	120.000000	497	1988
Frame#	Time	RFHD			LFHD			RBHD			LBHD			RSHO			LSHO			CLAV			STRN			T10			RBWT			LBWT			RFWT			LFWT			RRAD			RWRA			RWRB			RCAR			RHUM			LHUM			LRAD			LWRA			LWRB			LCAR			RKNI			RKNE			LKNI			LKNE			RANE			RANI			RTOE			RHEE			LTOE			LANI			LANE			LHEE			
		X1	Y1	Z1	X2	Y2	Z2	X3	Y3	Z3	X4	Y4	Z4	X5	Y5	Z5	X6	Y6	Z6	X7	Y7	Z7	X8	Y8	Z8	X9	Y9	Z9	X10	Y10	Z10	X11	Y11	Z11	X12	Y12	Z12	X13	Y13	Z13	X14	Y14	Z14	X15	Y15	Z15	X16	Y16	Z16	X17	Y17	Z17	X18	Y18	Z18	X19	Y19	Z19	X20	Y20	Z20	X21	Y21	Z21	X22	Y22	Z22	X23	Y23	Z23	X24	Y24	Z24	X25	Y25	Z25	X26	Y26	Z26	X27	Y27	Z27	X28	Y28	Z28	X29	Y29	Z29	X30	Y30	Z30	X31	Y31	Z31	X32	Y32	Z32	X33	Y33	Z33	X34	Y34	Z34	X35	Y35	Z35	

498	4.141666666666667	185.1127471923828	1439.6630859375	288.1517028808593	171.1214599609375	1436.621215820312	163.823013305664	74.30747222900386	1541.97705078125	304.1242065429686	54.18060684204099	1543.061645507812	174.8000946044921	-4.088749408721966	1381.639770507812	344.1133422851562	-20.17660331726076	1373.531127929688	126.1124420166015	4.728871822357148	1321.838623046875	245.5235290527343	-45.60686874389651	1216.138671875	252.2769470214843	-220.5258026123047	1377.809692382812	270.2070617675781	-418.2485656738282	1103.320190429688	345.9097900390624	-427.25244140625	1102.634155273438	226.2898559570311	-243.1016235351563	1062.607666015625	388.0028381347655	-251.3659362792969	1080.486938476562	162.2744903564452	143.1841278076171	1176.106567382812	493.3757629394531	317.2455139160156	1048.08544921875	409.8824462890625	341.9055175781249	1057.564331054688	468.507080078125	420.2885131835937	1019.629211425781	400.0166320800781	97.76850891113276	1134.51416015625	465.1556091308593	90.78366851806639	1124.204956054688	80.05312347412104	139.9321136474609	1154.78759765625	48.85958862304682	320.1232604980469	1043.303588867188	148.046157836914	339.6367797851562	1050.682861328125	83.94695281982419	406.5686645507812	1043.631591796875	153.3996276855469	-88.24560546875004	651.0236206054688	343.4139099121093	-100.5413665771485	684.769287109375	457.9587707519531	12.13108825683592	853.73193359375	169.4288635253906	-25.84152221679688	850.9862670898438	42.82928848266597	-96.61400604248053	337.5415649414062	441.4123840332031	-72.45655059814457	347.2607421875	363.9809875488281	86.74713134765621	272.6654357910156	397.0112915039062	-157.2587890625001	298.7676391601562	405.8321838378906	-123.5458297729492	466.5093078613281	133.0037231445312	-233.6165924072266	611.5819702148438	172.1209716796874	-262.6995849609375	605.3052978515625	97.18922424316399	-339.8377075195312	594.8995971679688	144.5049743652343	
499	4.15	185.3219604492187	1440.30224609375	287.2023315429686	171.3268127441406	1437.159790039062	162.9194946289062	74.63055419921871	1542.753662109375	303.1477966308593	54.43206405639646	1543.717895507812	173.8454132080077	-3.605805158615154	1382.092895507812	343.2213134765624	-19.9667320251465	1373.733764648438	125.0895538330077	4.779446125030487	1322.497436523438	244.658218383789	-45.08091735839847	1216.7666015625	251.3219146728515	-220.23193359375	1377.922485351562	270.1752929687499	-416.3496704101563	1103.36279296875	347.3000488281249	-426.2928771972656	1102.6943359375	227.6947021484374	-241.1727447509766	1062.158569335938	387.7136230468749	-250.9660949707032	1080.886474609375	162.225128173828	143.6956176757812	1176.478515625	492.6871948242187	317.6889343261718	1048.0146484375	409.7518615722656	342.2797241210937	1057.5009765625	468.3411254882812	420.6311950683593	1019.420837402344	399.9741516113281	98.19171142578119	1134.8779296875	464.6050720214843	91.26059722900389	1124.556396484375	81.05281829833979	140.0805053710938	1154.602661132812	48.86579132080072	320.3866271972656	1043.300415039062	148.0255126953125	339.8394165039062	1050.592407226562	83.85173797607419	406.8088073730469	1043.515014648438	153.3805084228516	-98.09412384033207	641.6565551757812	341.6054382324218	-110.1876983642579	675.6605224609375	456.1191406249999	18.34417724609373	868.85595703125	167.1900787353515	-18.90569877624512	864.8926391601562	42.82534790039058	-106.6611862182618	328.0338439941406	440.6536254882812	-81.87622070312504	337.1395263671875	363.5905151367188	75.62312316894527	258.3529663085938	396.7348022460938	-167.3807830810547	290.3337097167969	404.5212707519531	-111.1818313598633	481.814453125	133.8098907470703	-225.1286773681641	624.239013671875	172.4686584472656	-254.5558013916016	616.8771362304688	97.62693786621087	-331.9176635742188	603.6880493164062	145.0327148437499	
500	4.158333333333333	185.6752014160156	1441.078857421875	286.3366088867186	171.5861358642578	1437.8037109375	162.0172119140624	75.13634490966793	1543.63525390625	302.2240295410155	54.80339431762693	1544.476196289062	172.9590301513671	-2.893635034561199	1382.735717773438	342.4164428710937	-19.6067581176758	1374.06298828125	124.1421432495116	5.131856441497773	1323.282958984375	243.8963012695312	-44.21335601806643	1217.4794921875	250.492218017578	-219.7024383544922	1378.202270507812	270.1887817382812	-414.6466064453126	1103.986572265625	348.5678100585936	-425.4397888183594	1103.259033203125	229.058135986328	-239.5655059814454	1062.00830078125	387.3985290527343	-250.6223449707032	1081.5029296875	162.1554718017577	144.2563018798828	1176.893188476562	492.0513916015624	318.1534423828124	1047.928588867188	409.5665588378906	342.7256469726562	1057.444702148438	468.1600952148438	420.9945678710937	1019.152221679688	399.8818359375	98.79896545410151	1135.23388671875	463.8488159179687	91.64373779296874	1124.628295898438	81.53252410888666	140.3138885498047	1154.490234375	48.80489730834955	320.6693420410156	1043.300048828125	147.9454193115234	340.023681640625	1050.503784179688	83.73551177978513	407.1039733886719	1043.3818359375	153.3023071289062	-107.8299179077149	633.7835693359375	339.7041015624999	-119.6701126098633	668.1510620117188	454.3703918457031	23.46648216247556	882.938232421875	167.7696533203124	-11.60436248779297	878.0001220703125	42.55426788330072	-117.4680404663087	320.1552734375	439.8388671875	-92.25531005859379	328.4483947753906	363.0164184570312	63.49548721313472	245.4410858154297	396.4232482910156	-178.5580749511719	283.9982299804688	403.732177734375	-98.43191528320314	496.1852722167969	134.3266143798828	-216.9954528808594	635.9693603515625	173.2940216064453	-245.6309356689453	626.7260131835938	98.26517486572259	-323.1963195800781	610.3316650390625	145.5767364501953	
501	4.166666666666667	186.2022705078125	1441.959594726562	285.4844665527343	172.0335540771484	1438.608276367188	161.2520294189453	75.6873397827148	1544.60595703125	301.3802795410155	55.28311920166013	1545.356323242188	172.1426696777343	-2.00566601753239	1383.473022460938	341.6442260742187	-19.1676483154297	1374.537109375	123.2792205810546	5.745748996734589	1324.222534179688	243.1653442382812	-43.11640548706058	1218.2294921875	249.7663269042968	-218.971923828125	1378.63916015625	270.2594604492187	-413.1634826660157	1105.076171875	349.682891845703	-424.7364501953125	1104.266723632812	230.2486267089843	-238.4256744384766	1061.949951171875	387.0028991699218	-250.4513549804688	1082.33203125	162.1421356201171	144.9962463378906	1177.314819335938	491.3404541015624	318.6959228515624	1047.863037109375	409.4188537597656	343.2373046874999	1057.388305664062	467.9801025390625	421.3503417968749	1018.872680664062	399.8526000976562	99.52485656738276	1135.6181640625	463.0967712402343	92.0761260986328	1124.834838867188	81.81195068359369	140.6026458740234	1154.509887695312	48.72803115844721	320.9106750488281	1043.3515625	147.8706512451172	340.2722778320312	1050.449096679688	83.62898254394528	407.4247436523438	1043.284545898438	153.2016448974609	-117.4869918823243	627.3101806640625	337.8027343749999	-128.8842163085938	662.234130859375	452.6868896484374	28.01469993591306	896.1808471679688	168.7017822265624	-5.750495433807378	890.666015625	42.77131652832026	-129.0658416748047	313.9228515625	438.9458923339844	-103.4314193725586	321.3351440429688	362.3053894042969	50.27465057373042	233.9379119873047	396.0758361816406	-190.6193237304688	279.437255859375	402.7959594726562	-84.77951812744142	509.2353820800781	134.920181274414	-208.1940155029297	644.9528198242188	173.8466491699218	-235.9911346435547	634.4757080078125	98.98540496826165	-314.9252014160156	615.0150146484375	146.7928924560546	
502	4.175	186.8003997802734	1442.933227539062	284.779815673828	172.5691375732422	1439.493408203125	160.5553283691406	76.31457519531246	1545.617553710938	300.6570434570311	55.85751724243162	1546.259765625	171.3988800048827	-1.024182796478313	1384.2470703125	340.8908691406249	-18.58828544616701	1375.10546875	122.5894699096679	6.565786838531465	1325.257934570312	242.6171417236327	-41.87063980102542	1219.064331054688	249.2106933593749	-218.0545959472657	1379.228881835938	270.3418884277343	-412.0859985351563	1106.520751953125	350.5561218261718	-424.2411499023438	1105.703002929688	231.2351989746093	-237.762924194336	1062.070068359375	386.7062072753905	-250.5481872558594	1083.311279296875	162.1909027099609	145.7762908935546	1177.750854492188	490.7692565917968	319.2206115722656	1047.840942382812	409.3490295410156	343.6890258789062	1057.36279296875	467.8839416503906	421.7079467773437	1018.55517578125	399.8172302246094	100.2505340576171	1136.058349609375	462.3582763671874	92.48734283447264	1125.1806640625	81.98720550537104	140.9656066894531	1154.719116210938	48.60198974609369	321.1691589355469	1043.433837890625	147.8059844970703	340.5862731933594	1050.385131835938	83.54109191894528	407.7160034179688	1043.129272460938	153.157470703125	-126.6677932739258	622.3546752929688	335.8541870117187	-137.2769622802735	657.6725463867188	451.0229187011718	31.40474319458006	909.0119018554688	169.8915405273437	-1.178720116615301	902.4528198242188	43.46139907836908	-141.2005157470704	308.9767150878906	438.0423278808594	-115.3879852294922	315.864501953125	361.4718322753906	36.00448226928706	223.9989929199219	395.6959533691406	-203.4657135009766	276.4041748046875	401.7441101074219	-70.3180618286133	520.770263671875	135.4623107910156	-198.3352355957032	651.9578857421875	174.6172790527343	-223.4083404541016	639.2943115234375	98.51792907714837	-303.6769409179688	617.5570068359375	147.0404968261718	
